<svg width="17" height="16" viewBox="0 0 17 16" fill="none" xmlns="http://www.w3.org/2000/svg">
<path d="M9.1287 13.5857V6.53674H8.05474V13.5857L6.3135 11.9644L5.55408 12.6715L8.59172 15.5L11.6294 12.6715L10.8699 11.9644L9.1287 13.5857Z" fill="#7A8391"/>
<path d="M13.4246 5.03674C13.4246 2.55549 11.2565 0.536743 8.59172 0.536743C5.92695 0.536743 3.75888 2.55549 3.75888 5.03674C2.90438 5.03674 2.08488 5.35281 1.48066 5.91542C0.876436 6.47803 0.536987 7.24109 0.536987 8.03674C0.536987 8.83239 0.876436 9.59546 1.48066 10.1581C2.08488 10.7207 2.90438 11.0367 3.75888 11.0367H6.44379V10.0367H3.75888C3.18921 10.0367 2.64288 9.82603 2.24007 9.45096C1.83725 9.07588 1.61095 8.56718 1.61095 8.03674C1.61095 7.50631 1.83725 6.9976 2.24007 6.62253C2.64288 6.24746 3.18921 6.03674 3.75888 6.03674H4.83285V5.03674C4.83285 4.10849 5.22887 3.21825 5.93379 2.56187C6.63872 1.90549 7.59481 1.53674 8.59172 1.53674C9.58864 1.53674 10.5447 1.90549 11.2496 2.56187C11.9546 3.21825 12.3506 4.10849 12.3506 5.03674V6.03674H13.4246C13.9942 6.03674 14.5406 6.24746 14.9434 6.62253C15.3462 6.9976 15.5725 7.50631 15.5725 8.03674C15.5725 8.56718 15.3462 9.07588 14.9434 9.45096C14.5406 9.82603 13.9942 10.0367 13.4246 10.0367H10.7397V11.0367H13.4246C14.2791 11.0367 15.0986 10.7207 15.7028 10.1581C16.307 9.59546 16.6465 8.83239 16.6465 8.03674C16.6465 7.24109 16.307 6.47803 15.7028 5.91542C15.0986 5.35281 14.2791 5.03674 13.4246 5.03674Z" fill="#7A8391"/>
</svg>
