<svg width="38" height="38" viewBox="0 0 38 38" fill="none" xmlns="http://www.w3.org/2000/svg">
<path d="M31.5735 1.14287L13.4849 16.1328C13.3512 16.1267 13.2176 16.1226 13.0846 16.1226H13.0826C11.2019 16.1197 9.36863 16.7128 7.84606 17.8169C6.32349 18.9209 5.18996 20.4791 4.60825 22.2676L0.429657 35.0458C0.326909 35.3606 0.300047 35.6951 0.351265 36.0222C0.402482 36.3493 0.530328 36.6596 0.724363 36.9279C0.918398 37.1961 1.17312 37.4147 1.46774 37.5657C1.76235 37.7167 2.08851 37.7959 2.41958 37.7969C2.64251 37.7967 2.864 37.7613 3.07583 37.6918L15.8541 33.5134C17.6426 32.9317 19.2008 31.7982 20.3048 30.2756C21.4089 28.753 22.002 26.9198 21.999 25.039C21.9987 24.8416 21.9919 24.6442 21.9785 24.4472L36.8999 6.47405C37.5021 5.7486 37.8119 4.82447 37.7684 3.88263C37.725 2.94079 37.3316 2.04907 36.6652 1.38208C35.9988 0.715091 35.1075 0.320878 34.1657 0.276633C33.2239 0.232389 32.2995 0.541299 31.5735 1.14287ZM15.077 31.1371L3.05255 35.069L6.98434 23.0446C7.40296 21.7575 8.21869 20.6363 9.31438 19.8418C10.4101 19.0473 11.7294 18.6205 13.0828 18.6227C13.2602 18.6227 13.439 18.6305 13.6172 18.645L19.4766 24.5044C19.4914 24.6822 19.4988 24.8605 19.4989 25.0389C19.501 26.3923 19.0742 27.7115 18.2797 28.8071C17.4853 29.9028 16.364 30.7185 15.077 31.1371ZM34.9765 4.87709L20.6704 22.1087L15.9218 17.3601L33.1686 3.06772C33.415 2.86331 33.7288 2.75827 34.0486 2.77318C34.3684 2.7881 34.6711 2.92189 34.8973 3.14835C35.1236 3.3748 35.2571 3.67759 35.2718 3.99738C35.2864 4.31716 35.1811 4.6309 34.9765 4.87709Z" fill="#45577B"/>
</svg>
